<svg width="48" height="14" viewBox="0 0 48 14" fill="none" xmlns="http://www.w3.org/2000/svg">
<path d="M2.14244 6.44992V13.4166H4.7101V6.44992H7.91968V4.24992H4.7101C4.7101 3.77325 4.83848 3.42492 5.13193 3.20492C5.40704 2.98492 5.84721 2.87492 6.45244 2.87492C6.69087 2.87492 6.94763 2.89325 7.22274 2.91158C7.47951 2.94825 7.75461 2.98492 8.01138 3.05825V0.766585C7.7913 0.693253 7.49785 0.656585 7.16772 0.619919C6.81925 0.601585 6.48912 0.583252 6.17734 0.583252C5.4804 0.583252 4.89351 0.674918 4.37997 0.839918C3.86644 1.02325 3.46295 1.26158 3.13282 1.55492C2.8027 1.86658 2.54593 2.23325 2.38087 2.65492C2.2158 3.09492 2.14244 3.55325 2.14244 4.06658V4.24992H0.766907V6.44992H2.14244Z" fill="#F51B1B"/>
<path d="M8.83527 4.24992V13.4166H11.4029V7.54991C12.1365 7.14658 12.7968 6.83492 13.3837 6.65158C13.9706 6.46825 14.5758 6.35825 15.1994 6.35825C15.4011 6.35825 15.6029 6.37658 15.7863 6.41325C15.9697 6.44992 16.1348 6.46825 16.2631 6.50492V4.24992C16.0431 4.19492 15.8413 4.15825 15.6579 4.12158C15.4562 4.08492 15.2544 4.06658 15.071 4.06658C14.5208 4.06658 13.9156 4.15825 13.292 4.34158C12.6684 4.52492 12.0082 4.81825 11.3112 5.20325V4.24992H8.83527Z" fill="#F51B1B"/>
<path d="M16.3584 8.83325C16.3584 9.56658 16.4868 10.2266 16.7436 10.8132C17.0003 11.3999 17.3672 11.9132 17.844 12.3166C18.3209 12.7382 18.9078 13.0499 19.6047 13.2699C20.3016 13.4899 21.0719 13.5999 21.9523 13.5999C22.8143 13.5999 23.5846 13.4899 24.2815 13.2699C24.9784 13.0499 25.5653 12.7382 26.0422 12.3166C26.519 11.9132 26.9042 11.3999 27.1609 10.8132C27.4177 10.2266 27.5461 9.56658 27.5461 8.83325C27.5461 8.09991 27.4177 7.43992 27.1609 6.85325C26.9042 6.26658 26.519 5.77158 26.0422 5.34992C25.5653 4.94658 24.9784 4.61658 24.2815 4.39658C23.5846 4.17658 22.8143 4.06658 21.9523 4.06658C21.0719 4.06658 20.3016 4.17658 19.6047 4.39658C18.9078 4.61658 18.3209 4.94658 17.844 5.34992C17.3672 5.77158 17.0003 6.26658 16.7436 6.85325C16.4868 7.43992 16.3584 8.09991 16.3584 8.83325ZM19.0178 8.83325C19.0178 7.18325 19.9898 6.35825 21.9523 6.35825C23.8964 6.35825 24.8867 7.18325 24.8867 8.83325C24.8867 10.4832 23.8964 11.3082 21.9523 11.3082C19.9898 11.3082 19.0178 10.4832 19.0178 8.83325Z" fill="#F51B1B"/>
<path d="M29.0212 4.24992V13.4166H31.5889V7.36658C32.2124 7.03658 32.7993 6.79825 33.3496 6.61492C33.8814 6.44992 34.3033 6.35825 34.6334 6.35825C35.2936 6.35825 35.8072 6.55992 36.174 6.92658C36.5408 7.29325 36.7242 7.80658 36.7242 8.46658V13.4166H39.2919V7.54991C39.2919 7.03658 39.2002 6.55992 39.0168 6.11992C38.8333 5.69825 38.5582 5.33158 38.2281 5.01992C37.8796 4.72658 37.4578 4.48825 36.981 4.32325C36.5041 4.15825 35.9722 4.06658 35.3853 4.06658C35.1102 4.06658 34.8535 4.08492 34.5967 4.12158C34.3399 4.15825 34.0465 4.19492 33.753 4.26825C33.4596 4.34158 33.1295 4.45158 32.7627 4.56158C32.3958 4.68992 31.974 4.83658 31.4972 5.01992V4.24992H29.0212Z" fill="#F51B1B"/>
<path d="M41.9476 6.44992V9.93325C41.9476 11.0699 42.2594 11.9499 42.9197 12.6099C43.5799 13.2699 44.5887 13.5999 45.9825 13.5999C46.1293 13.5999 46.3127 13.5999 46.4961 13.5816C46.6795 13.5816 46.8629 13.5632 47.0463 13.5449C47.2297 13.5266 47.3947 13.5082 47.5598 13.4716C47.7249 13.4349 47.8716 13.3982 48 13.3432V11.0516C47.7065 11.1616 47.4131 11.2166 47.1013 11.2532C46.7712 11.2899 46.4961 11.3082 46.2576 11.3082C45.6524 11.3082 45.2122 11.1982 44.9371 10.9782C44.6437 10.7582 44.5153 10.3366 44.5153 9.74991V6.44992H47.9083V4.24992H44.5153V1.59158H41.9476V4.24992H40.297V6.44992H41.9476Z" fill="#F51B1B"/>
</svg>
