<svg width="149" height="16" viewBox="0 0 149 16" fill="none" xmlns="http://www.w3.org/2000/svg">
<path fill-rule="evenodd" clip-rule="evenodd" d="M31.527 0.666748L16.683 7.80008L1.90475 0.666748L0 2.60008L11.4942 15.3334L16.683 10.0667L21.9375 15.3334L33.4317 2.60008L31.527 0.666748ZM42.125 14.0198V4.74121H44.596V5.70618C45.2916 5.31648 45.9505 5.01957 46.5729 4.83399C47.1952 4.64842 47.7993 4.55563 48.3484 4.55563C48.5314 4.55563 48.7328 4.57419 48.9341 4.61131C48.97 4.61859 49.0066 4.62587 49.044 4.63329C49.1969 4.6637 49.3616 4.69646 49.5382 4.74121V7.02375C49.4592 7.00088 49.3663 6.98505 49.2638 6.96759C49.2 6.95671 49.1325 6.9452 49.0623 6.93096C48.8792 6.89385 48.6779 6.87529 48.4765 6.87529C47.8542 6.87529 47.2501 6.98663 46.6644 7.17221C46.0787 7.35778 45.4197 7.67325 44.6875 8.08151V14.0198H42.125ZM58.3278 14.0198V12.2569H58.2362C57.8702 12.9435 57.3759 13.4446 56.7536 13.7415C56.1313 14.0569 55.3442 14.2054 54.3924 14.2054C53.6968 14.2054 53.0744 14.0941 52.4887 13.8714C51.903 13.6487 51.3905 13.3332 50.9695 12.925C50.5485 12.5167 50.219 12.0342 49.981 11.4589C49.7431 10.9022 49.6333 10.2713 49.6333 9.56609C49.6333 8.8238 49.7248 8.15574 49.9261 7.54335C50.1092 6.93096 50.4203 6.3928 50.8413 5.94743C51.244 5.50205 51.7748 5.16802 52.4155 4.92678C53.0378 4.68554 53.7883 4.55563 54.6669 4.55563C55.216 4.55563 55.7652 4.62986 56.3326 4.74121C56.9 4.87111 57.5407 5.05668 58.2362 5.29792V1.21533H60.7988V14.0198H58.3278ZM58.2362 9.00937V7.71037C57.7603 7.46912 57.2661 7.26499 56.7353 7.11654C56.2045 6.96808 55.6736 6.87529 55.1245 6.87529C54.1361 6.87529 53.4222 7.07942 52.9646 7.48768C52.507 7.89594 52.2874 8.52689 52.2874 9.38052C52.2874 9.77022 52.324 10.1228 52.4338 10.4197C52.5253 10.7352 52.6901 10.995 52.9097 11.2177C53.1294 11.4404 53.4222 11.6074 53.7883 11.7187C54.1544 11.8301 54.6303 11.8857 55.1794 11.8857C56.1496 11.8857 56.9 11.6445 57.4309 11.1435C57.9617 10.6424 58.2362 9.93724 58.2362 9.00937ZM71.87 11.1435V13.5559C71.3575 13.7786 70.7535 13.927 70.0579 14.0384C69.3623 14.1497 68.6668 14.2054 67.9346 14.2054C67.0377 14.2054 66.2506 14.0941 65.5551 13.8528C64.8595 13.6301 64.2738 13.2961 63.7979 12.8693C63.3219 12.461 62.9559 11.9414 62.7179 11.3476C62.4617 10.7538 62.3518 10.1043 62.3518 9.38052C62.3518 8.67534 62.4617 8.00728 62.7179 7.41345C62.9559 6.81962 63.3219 6.31857 63.7979 5.89176C64.2738 5.4835 64.8595 5.14947 65.5551 4.90822C66.2506 4.68553 67.0377 4.55563 67.9346 4.55563C68.6668 4.55563 69.3623 4.61131 70.0579 4.72265C70.7535 4.83399 71.3575 5.00101 71.87 5.20514V7.61758C71.2111 7.33922 70.5887 7.15365 69.9664 7.04231C69.344 6.93096 68.74 6.87529 68.1909 6.87529C67.0743 6.87529 66.2689 7.09798 65.7564 7.54335C65.2439 7.98873 65.0059 8.60111 65.0059 9.38052C65.0059 10.1785 65.2439 10.7909 65.7564 11.2362C66.2689 11.6816 67.0743 11.8857 68.1909 11.8857C68.74 11.8857 69.344 11.8486 69.9664 11.7373C70.5887 11.6259 71.2111 11.4404 71.87 11.1435ZM75.9813 14.0198H73.4187V1.21533H75.9813V14.0198ZM77.8947 14.0198V4.74121H80.3658V5.70618C81.0613 5.31648 81.7203 5.01957 82.3426 4.83399C82.965 4.64842 83.569 4.55563 84.1181 4.55563C84.3012 4.55563 84.5025 4.57419 84.7039 4.61131C84.7398 4.61859 84.7764 4.62587 84.8137 4.6333C84.9666 4.6637 85.1313 4.69646 85.3079 4.74121V7.02375C85.2289 7.00088 85.1361 6.98505 85.0336 6.96759C84.9698 6.95671 84.9022 6.9452 84.832 6.93096C84.6489 6.89385 84.4476 6.87529 84.2462 6.87529C83.6239 6.87529 83.0199 6.98663 82.4341 7.17221C81.8484 7.35778 81.1894 7.67325 80.4573 8.08151V14.0198H77.8947ZM84.7157 13.8157C84.4229 13.5559 84.2947 13.2219 84.2947 12.7765C84.2947 12.3682 84.4229 12.0156 84.7157 11.7558C84.9903 11.496 85.3747 11.3661 85.8506 11.3661C86.3265 11.3661 86.6926 11.496 86.9854 11.7558C87.26 12.0156 87.4064 12.3682 87.4064 12.7765C87.4064 13.2219 87.26 13.5559 86.9854 13.8157C86.6926 14.0755 86.3265 14.2054 85.8506 14.2054C85.3747 14.2054 84.9903 14.0755 84.7157 13.8157ZM88.6877 13.5559V11.2362C89.3467 11.5517 90.0605 11.7558 90.7927 11.8486C91.5249 11.9414 92.2937 11.9785 93.0807 11.9785C93.6665 11.9785 94.1058 11.9414 94.3987 11.8301C94.6732 11.7373 94.8196 11.5703 94.8196 11.3105C94.8196 11.1991 94.7464 11.1063 94.6366 11.0321C94.5268 10.9579 94.3804 10.8837 94.2156 10.828C94.0326 10.7723 93.8495 10.7166 93.6482 10.6795C93.5012 10.6524 93.364 10.6155 93.2437 10.583C93.1991 10.571 93.1569 10.5597 93.1174 10.5496L91.5615 10.1599C91.0124 10.03 90.5548 9.86301 90.1887 9.65888C89.8043 9.47331 89.4931 9.25062 89.2552 9.00937C89.0172 8.76813 88.8525 8.50833 88.7426 8.21141C88.6328 7.93305 88.5962 7.63614 88.5962 7.33922C88.5962 7.02375 88.6694 6.68972 88.8342 6.35569C88.9989 6.02166 89.2552 5.72474 89.5846 5.46494C89.9141 5.20514 90.3534 4.98245 90.8659 4.81544C91.3785 4.64842 92.0008 4.55563 92.7147 4.55563C93.5384 4.55563 94.3071 4.61131 95.0027 4.72265C95.6982 4.83399 96.3206 5.00101 96.8331 5.20514V7.52479C96.1742 7.24644 95.5335 7.06086 94.9112 6.94952C94.2888 6.83818 93.6482 6.7825 92.9892 6.7825C92.4401 6.7825 92.0191 6.83818 91.7262 6.93096C91.4334 7.04231 91.2869 7.20932 91.2869 7.45057C91.2869 7.56191 91.3419 7.6547 91.4517 7.72892C91.5615 7.80315 91.7079 7.87738 91.891 7.93305C92.0557 7.98873 92.2388 8.0444 92.4401 8.08151L92.9892 8.19286L94.5085 8.564C95.0576 8.71246 95.5152 8.87947 95.8996 9.06505C96.2657 9.26918 96.5769 9.49186 96.8148 9.73311C97.0345 9.97435 97.1992 10.2342 97.309 10.5311C97.4188 10.828 97.4738 11.1249 97.4738 11.4218C97.4738 11.7187 97.4006 12.0342 97.2541 12.3682C97.1077 12.7023 96.8514 12.9992 96.5219 13.259C96.1742 13.5373 95.7349 13.76 95.1857 13.9456C94.6366 14.1312 93.9777 14.2054 93.1723 14.2054C92.2571 14.2054 91.3968 14.1683 90.628 14.0569C89.8409 13.9642 89.2003 13.7971 88.6877 13.5559ZM107.828 11.1435V13.5559C107.315 13.7786 106.711 13.927 106.016 14.0384C105.32 14.1497 104.625 14.2054 103.892 14.2054C102.995 14.2054 102.208 14.0941 101.513 13.8528C100.817 13.6301 100.232 13.2961 99.7556 12.8693C99.2797 12.461 98.9137 11.9414 98.6757 11.3476C98.4194 10.7538 98.3096 10.1043 98.3096 9.38052C98.3096 8.67534 98.4194 8.00728 98.6757 7.41345C98.9137 6.81962 99.2797 6.31857 99.7556 5.89176C100.232 5.4835 100.817 5.14947 101.513 4.90822C102.208 4.68553 102.995 4.55563 103.892 4.55563C104.625 4.55563 105.32 4.61131 106.016 4.72265C106.711 4.83399 107.315 5.00101 107.828 5.20514V7.61758C107.169 7.33922 106.547 7.15365 105.924 7.04231C105.302 6.93096 104.698 6.87529 104.149 6.87529C103.032 6.87529 102.227 7.09798 101.714 7.54335C101.202 7.98873 100.964 8.60111 100.964 9.38052C100.964 10.1785 101.202 10.7909 101.714 11.2362C102.227 11.6816 103.032 11.8857 104.149 11.8857C104.698 11.8857 105.302 11.8486 105.924 11.7373C106.547 11.6259 107.169 11.4404 107.828 11.1435ZM111.939 14.0198H109.377V1.21533H111.939V5.4835C112.397 5.29792 112.799 5.14947 113.165 5.03812C113.513 4.92678 113.843 4.83399 114.136 4.75976C114.428 4.68554 114.685 4.64842 114.941 4.61131C115.197 4.57419 115.454 4.55563 115.728 4.55563C116.314 4.55563 116.845 4.64842 117.321 4.81544C117.796 4.98245 118.217 5.2237 118.565 5.52061C118.895 5.83608 119.169 6.20723 119.352 6.63405C119.535 7.07942 119.627 7.56191 119.627 8.08151V14.0198H117.064V9.00937C117.064 8.34131 116.881 7.82171 116.515 7.45057C116.149 7.07942 115.637 6.87529 114.978 6.87529C114.648 6.87529 114.227 6.96808 113.696 7.13509C113.147 7.32066 112.561 7.56191 111.939 7.89594V14.0198ZM121.378 11.3847C121.122 10.7909 120.994 10.1228 120.994 9.38052C120.994 8.63823 121.122 7.97017 121.378 7.37634C121.635 6.7825 122.001 6.28146 122.477 5.85464C122.953 5.44638 123.538 5.11235 124.234 4.88967C124.929 4.66698 125.698 4.55563 126.577 4.55563C127.437 4.55563 128.206 4.66698 128.901 4.88967C129.597 5.11235 130.183 5.44638 130.659 5.85464C131.135 6.28146 131.519 6.7825 131.775 7.37634C132.031 7.97017 132.16 8.63823 132.16 9.38052C132.16 10.1228 132.031 10.7909 131.775 11.3847C131.519 11.9785 131.135 12.4981 130.659 12.9064C130.183 13.3332 129.597 13.6487 128.901 13.8714C128.206 14.0941 127.437 14.2054 126.577 14.2054C125.698 14.2054 124.929 14.0941 124.234 13.8714C123.538 13.6487 122.953 13.3332 122.477 12.9064C122.001 12.4981 121.635 11.9785 121.378 11.3847ZM126.577 6.87529C124.618 6.87529 123.648 7.71037 123.648 9.38052C123.648 11.0507 124.618 11.8857 126.577 11.8857C128.517 11.8857 129.505 11.0507 129.505 9.38052C129.505 7.71037 128.517 6.87529 126.577 6.87529ZM133.65 11.3847C133.394 10.7909 133.266 10.1228 133.266 9.38052C133.266 8.63823 133.394 7.97017 133.65 7.37634C133.906 6.7825 134.272 6.28146 134.748 5.85464C135.224 5.44638 135.81 5.11235 136.506 4.88967C137.201 4.66698 137.97 4.55563 138.848 4.55563C139.709 4.55563 140.478 4.66698 141.173 4.88967C141.869 5.11235 142.454 5.44638 142.93 5.85464C143.406 6.28146 143.791 6.7825 144.047 7.37634C144.303 7.97017 144.431 8.63823 144.431 9.38052C144.431 10.1228 144.303 10.7909 144.047 11.3847C143.791 11.9785 143.406 12.4981 142.93 12.9064C142.454 13.3332 141.869 13.6487 141.173 13.8714C140.478 14.0941 139.709 14.2054 138.848 14.2054C137.97 14.2054 137.201 14.0941 136.506 13.8714C135.81 13.6487 135.224 13.3332 134.748 12.9064C134.272 12.4981 133.906 11.9785 133.65 11.3847ZM138.848 6.87529C136.89 6.87529 135.92 7.71037 135.92 9.38052C135.92 11.0507 136.89 11.8857 138.848 11.8857C140.789 11.8857 141.777 11.0507 141.777 9.38052C141.777 7.71037 140.789 6.87529 138.848 6.87529ZM148.558 14.0198H145.995V1.21533H148.558V14.0198Z" fill="white"/>
</svg>
